<svg width="167" height="167" viewBox="0 0 167 167" fill="none" xmlns="http://www.w3.org/2000/svg">
<path d="M103.381 83.5C103.381 94.4799 94.4799 103.381 83.5 103.381C72.5201 103.381 63.619 94.4799 63.619 83.5C63.619 72.5201 72.5201 63.619 83.5 63.619C94.4799 63.619 103.381 72.5201 103.381 83.5Z" fill="white" fill-opacity="0.45"/>
<path fill-rule="evenodd" clip-rule="evenodd" d="M83.5 167C125.566 167 160.366 135.894 166.154 95.4286H117.249C112.337 109.328 99.0813 119.286 83.5 119.286C67.9187 119.286 54.6632 109.328 49.7506 95.4286H0.845603C6.6337 135.894 41.4342 167 83.5 167ZM49.7506 71.5714H0.845603C6.6337 31.1062 41.4342 0 83.5 0C125.566 0 160.366 31.1062 166.154 71.5714H117.249C112.337 57.6724 99.0813 47.7143 83.5 47.7143C67.9187 47.7143 54.6632 57.6723 49.7506 71.5714ZM103.381 83.5C103.381 94.4799 94.4799 103.381 83.5 103.381C72.5201 103.381 63.619 94.4799 63.619 83.5C63.619 72.5201 72.5201 63.619 83.5 63.619C94.4799 63.619 103.381 72.5201 103.381 83.5Z" fill="white" fill-opacity="0.45"/>
</svg>
